<svg xmlns="http://www.w3.org/2000/svg" width="640" height="800" viewBox="0 0 640 800" role="img" aria-label="Sample selfie illustration">
  <defs>
    <linearGradient id="bg" x1="0" y1="0" x2="1" y2="1">
      <stop offset="0%" stop-color="#fbe8ef"/>
      <stop offset="100%" stop-color="#fdeee5"/>
    </linearGradient>
  </defs>
  <rect width="640" height="800" fill="url(#bg)"/>
  <ellipse cx="320" cy="460" rx="220" ry="270" fill="#e7b8a4"/>
  <ellipse cx="245" cy="430" rx="26" ry="14" fill="#50352f"/>
  <ellipse cx="395" cy="430" rx="26" ry="14" fill="#50352f"/>
  <circle cx="245" cy="430" r="7" fill="#241b19"/>
  <circle cx="395" cy="430" r="7" fill="#241b19"/>
  <path d="M285 520 C315 548 345 548 375 520" stroke="#8e3c4b" stroke-width="10" fill="none" stroke-linecap="round"/>
  <ellipse cx="220" cy="500" rx="28" ry="18" fill="#d58c88" opacity="0.55"/>
  <ellipse cx="420" cy="500" rx="28" ry="18" fill="#d58c88" opacity="0.55"/>
  <path d="M130 345 C145 190 495 190 510 345 C480 150 160 150 130 345" fill="#3e2723"/>
  <rect x="235" y="690" width="170" height="60" rx="30" fill="#e77aa6" opacity="0.2"/>
</svg>
